<svg width="20" height="20" viewBox="0 0 20 20" fill="none" xmlns="http://www.w3.org/2000/svg">
<path fill-rule="evenodd" clip-rule="evenodd" d="M3.33333 0.833374C1.95262 0.833374 0.833334 1.95266 0.833334 3.33337C0.833334 4.71409 1.95262 5.83337 3.33333 5.83337C4.71405 5.83337 5.83333 4.71409 5.83333 3.33337C5.83333 1.95266 4.71405 0.833374 3.33333 0.833374ZM2.5 3.33337C2.5 2.87314 2.8731 2.50004 3.33333 2.50004C3.79357 2.50004 4.16667 2.87314 4.16667 3.33337C4.16667 3.79361 3.79357 4.16671 3.33333 4.16671C2.8731 4.16671 2.5 3.79361 2.5 3.33337Z" fill="#12F7D6"/>
<path fill-rule="evenodd" clip-rule="evenodd" d="M13.3333 5.83337C11.7862 5.83337 10.3025 6.44796 9.20854 7.54192C8.11458 8.63588 7.5 10.1196 7.5 11.6667V17.5C7.5 17.9603 7.8731 18.3334 8.33333 18.3334H11.6667C12.1269 18.3334 12.5 17.9603 12.5 17.5V11.6667C12.5 11.4457 12.5878 11.2337 12.7441 11.0775C12.9004 10.9212 13.1123 10.8334 13.3333 10.8334C13.5543 10.8334 13.7663 10.9212 13.9226 11.0775C14.0789 11.2337 14.1667 11.4457 14.1667 11.6667V17.5C14.1667 17.9603 14.5398 18.3334 15 18.3334H18.3333C18.7936 18.3334 19.1667 17.9603 19.1667 17.5V11.6667C19.1667 10.1196 18.5521 8.63588 17.4581 7.54192C16.3642 6.44796 14.8804 5.83337 13.3333 5.83337ZM13.3333 7.50004C12.2283 7.50004 11.1685 7.93903 10.3871 8.72043C9.60565 9.50183 9.16667 10.5616 9.16667 11.6667V16.6667H10.8333V11.6667C10.8333 11.0037 11.0967 10.3678 11.5656 9.89894C12.0344 9.4301 12.6703 9.16671 13.3333 9.16671C13.9964 9.16671 14.6323 9.4301 15.1011 9.89894C15.5699 10.3678 15.8333 11.0037 15.8333 11.6667V16.6667H17.5V11.6667C17.5 10.5616 17.061 9.50183 16.2796 8.72043C15.4982 7.93903 14.4384 7.50004 13.3333 7.50004Z" fill="#12F7D6"/>
<path fill-rule="evenodd" clip-rule="evenodd" d="M0.833334 7.50004C0.833334 7.0398 1.20643 6.66671 1.66667 6.66671H5C5.46024 6.66671 5.83333 7.0398 5.83333 7.50004V17.5C5.83333 17.9603 5.46024 18.3334 5 18.3334H1.66667C1.20643 18.3334 0.833334 17.9603 0.833334 17.5V7.50004ZM2.5 8.33337V16.6667H4.16667V8.33337H2.5Z" fill="#12F7D6"/>
</svg>
